<svg xmlns="http://www.w3.org/2000/svg" width="143" height="27" viewBox="0 0 143 27" fill="none">
  <path d="M9.125 22.25C7.80833 22.25 6.65 21.9917 5.65 21.475C4.66667 20.9417 3.9 20.2333 3.35 19.35C2.8 18.4667 2.39167 17.5167 2.125 16.5C1.875 15.4833 1.75 14.4 1.75 13.25C1.75 12.2 1.88333 11.175 2.15 10.175C2.41667 9.15835 2.825 8.20001 3.375 7.30001C3.925 6.38335 4.69167 5.65001 5.675 5.10001C6.675 4.53335 7.825 4.25001 9.125 4.25001C10.7083 4.25001 12.0583 4.65835 13.175 5.47501C14.2917 6.29168 15.0833 7.28335 15.55 8.45001L12.15 9.97501C11.6667 9.25835 11.2 8.73335 10.75 8.40001C10.3167 8.06668 9.775 7.90001 9.125 7.90001C8.50833 7.90001 7.96667 8.06668 7.5 8.40001C7.03333 8.71668 6.675 9.15001 6.425 9.70001C6.175 10.2333 5.99167 10.8 5.875 11.4C5.75833 11.9833 5.7 12.6 5.7 13.25C5.7 14.1333 5.80833 14.9667 6.025 15.75C6.25833 16.5333 6.64167 17.2083 7.175 17.775C7.725 18.325 8.375 18.6 9.125 18.6C10.2083 18.6 11.2 17.85 12.1 16.35L15.575 17.65C14.1583 20.7167 12.0083 22.25 9.125 22.25Z" fill="white"/>
  <path d="M25.4691 22V21.05C24.7025 21.8833 23.6441 22.3 22.2941 22.3C20.8775 22.3 19.7191 21.9417 18.8191 21.225C17.9358 20.4917 17.4941 19.45 17.4941 18.1C17.4941 16.7833 18.0108 15.775 19.0441 15.075C20.0775 14.3583 21.2858 14 22.6691 14C23.8691 14 24.8025 14.15 25.4691 14.45V13.75C25.4691 13.1667 25.2858 12.725 24.9191 12.425C24.5525 12.1083 24.0441 11.95 23.3941 11.95C22.0108 11.95 20.6441 12.4 19.2941 13.3L18.1691 10.525C19.7358 9.45835 21.5608 8.92501 23.6441 8.92501C27.2608 8.92501 29.0691 10.5917 29.0691 13.925V22H25.4691ZM22.9941 19.25C23.8941 19.25 24.7191 18.95 25.4691 18.35V17.2C24.8025 17 24.0775 16.9 23.2941 16.9C21.7941 16.9 21.0441 17.3083 21.0441 18.125C21.0441 18.875 21.6941 19.25 22.9941 19.25Z" fill="white"/>
  <path d="M32.5752 22V9.22501H36.2002V10.375C36.3669 10.0417 36.6669 9.71668 37.1002 9.40001C37.5335 9.08335 38.0419 8.92501 38.6252 8.92501C39.6252 8.92501 40.4669 9.28335 41.1502 10L40.6752 13.3C39.9752 12.7167 39.2169 12.425 38.4002 12.425C36.9335 12.425 36.2002 13.3083 36.2002 15.075V22H32.5752Z" fill="white"/>
  <path d="M43.3418 4.50001H49.7918C51.2585 4.50001 52.5585 4.75001 53.6918 5.25001C54.8251 5.73335 55.7168 6.40001 56.3668 7.25001C57.0335 8.08335 57.5251 9.00835 57.8418 10.025C58.1751 11.0417 58.3418 12.1167 58.3418 13.25C58.3418 14.0833 58.2501 14.9 58.0668 15.7C57.8835 16.4833 57.5751 17.2667 57.1418 18.05C56.7085 18.8167 56.1668 19.4917 55.5168 20.075C54.8668 20.6417 54.0418 21.1083 53.0418 21.475C52.0418 21.825 50.9251 22 49.6918 22H43.3418V4.50001ZM50.0918 18.375C51.5251 18.375 52.6001 17.8667 53.3168 16.85C54.0335 15.8167 54.3918 14.6167 54.3918 13.25C54.3918 11.8833 54.0418 10.6833 53.3418 9.65001C52.6585 8.61668 51.6668 8.10001 50.3668 8.10001H47.1418V18.375H50.0918Z" fill="white"/>
  <path d="M66.492 22.3C64.6087 22.3 63.1253 21.7083 62.042 20.525C60.9587 19.3417 60.417 17.7 60.417 15.6C60.417 13.55 60.9587 11.925 62.042 10.725C63.142 9.52501 64.6253 8.92501 66.492 8.92501C68.192 8.92501 69.5753 9.44168 70.642 10.475C71.7087 11.5083 72.242 13.0083 72.242 14.975C72.242 15.7917 72.2087 16.4167 72.142 16.85H63.967C64.0003 17.65 64.2503 18.25 64.717 18.65C65.1837 19.0333 65.7753 19.225 66.492 19.225C67.6587 19.225 68.617 18.775 69.367 17.875L71.467 19.975C70.1837 21.525 68.5253 22.3 66.492 22.3ZM63.992 14.125H68.767C68.5837 12.7083 67.7753 12 66.342 12C65.692 12 65.1587 12.1917 64.742 12.575C64.3253 12.9417 64.0753 13.4583 63.992 14.125Z" fill="white"/>
  <path d="M82.476 22V21.05C81.7093 21.8833 80.651 22.3 79.301 22.3C77.8843 22.3 76.726 21.9417 75.826 21.225C74.9426 20.4917 74.501 19.45 74.501 18.1C74.501 16.7833 75.0176 15.775 76.051 15.075C77.0843 14.3583 78.2926 14 79.676 14C80.876 14 81.8093 14.15 82.476 14.45V13.75C82.476 13.1667 82.2926 12.725 81.926 12.425C81.5593 12.1083 81.051 11.95 80.401 11.95C79.0176 11.95 77.651 12.4 76.301 13.3L75.176 10.525C76.7426 9.45835 78.5676 8.92501 80.651 8.92501C84.2676 8.92501 86.076 10.5917 86.076 13.925V22H82.476ZM80.001 19.25C80.901 19.25 81.726 18.95 82.476 18.35V17.2C81.8093 17 81.0843 16.9 80.301 16.9C78.801 16.9 78.051 17.3083 78.051 18.125C78.051 18.875 78.701 19.25 80.001 19.25Z" fill="white"/>
  <path d="M89.707 22V5.65001L93.332 3.95001V22H89.707Z" fill="white"/>
  <path d="M102.649 22.3C100.766 22.3 99.2826 21.7083 98.1992 20.525C97.1159 19.3417 96.5742 17.7 96.5742 15.6C96.5742 13.55 97.1159 11.925 98.1992 10.725C99.2992 9.52501 100.783 8.92501 102.649 8.92501C104.349 8.92501 105.733 9.44168 106.799 10.475C107.866 11.5083 108.399 13.0083 108.399 14.975C108.399 15.7917 108.366 16.4167 108.299 16.85H100.124C100.158 17.65 100.408 18.25 100.874 18.65C101.341 19.0333 101.933 19.225 102.649 19.225C103.816 19.225 104.774 18.775 105.524 17.875L107.624 19.975C106.341 21.525 104.683 22.3 102.649 22.3ZM100.149 14.125H104.924C104.741 12.7083 103.933 12 102.499 12C101.849 12 101.316 12.1917 100.899 12.575C100.483 12.9417 100.233 13.4583 100.149 14.125Z" fill="white"/>
  <path d="M111.408 22V9.22501H115.033V10.375C115.2 10.0417 115.5 9.71668 115.933 9.40001C116.367 9.08335 116.875 8.92501 117.458 8.92501C118.458 8.92501 119.3 9.28335 119.983 10L119.508 13.3C118.808 12.7167 118.05 12.425 117.233 12.425C115.767 12.425 115.033 13.3083 115.033 15.075V22H111.408Z" fill="white"/>
  <path d="M128.206 18.156C127.721 18.156 127.261 18.0954 126.828 17.974C126.403 17.844 126.005 17.6447 125.632 17.376C125.259 17.0987 124.96 16.713 124.735 16.219C124.518 15.725 124.41 15.1487 124.41 14.49V8.90002H126.386V14.49C126.386 15.14 126.529 15.595 126.815 15.855C127.11 16.115 127.573 16.245 128.206 16.245C128.821 16.245 129.276 16.115 129.571 15.855C129.874 15.5864 130.026 15.1314 130.026 14.49V8.90002H132.002V14.49C132.002 15.14 131.894 15.712 131.677 16.206C131.46 16.6914 131.166 17.0727 130.793 17.35C130.429 17.6274 130.03 17.831 129.597 17.961C129.164 18.091 128.7 18.156 128.206 18.156Z" fill="#7572FF"/>
  <path d="M139.81 18L137.587 13.866L135.858 16.024V18H133.882V8.90002H135.858V13.203L139.264 8.90002H141.643L138.926 12.202L142.124 18H139.81Z" fill="#7572FF"/>
</svg>