<svg width="142" height="27" viewBox="0 0 142 27" fill="none" xmlns="http://www.w3.org/2000/svg">
<g id="logo placeholder">
<g id="Group 1">
<g id="CarDealer">
<path d="M8.625 22.25C7.30833 22.25 6.15 21.9916 5.15 21.475C4.16667 20.9416 3.4 20.2333 2.85 19.35C2.3 18.4666 1.89167 17.5166 1.625 16.5C1.375 15.4833 1.25 14.4 1.25 13.25C1.25 12.2 1.38333 11.175 1.65 10.175C1.91667 9.15829 2.325 8.19995 2.875 7.29995C3.425 6.38329 4.19167 5.64995 5.175 5.09995C6.175 4.53328 7.325 4.24995 8.625 4.24995C10.2083 4.24995 11.5583 4.65829 12.675 5.47495C13.7917 6.29162 14.5833 7.28329 15.05 8.44995L11.65 9.97495C11.1667 9.25829 10.7 8.73329 10.25 8.39995C9.81667 8.06662 9.275 7.89995 8.625 7.89995C8.00833 7.89995 7.46667 8.06662 7 8.39995C6.53333 8.71662 6.175 9.14995 5.925 9.69995C5.675 10.2333 5.49167 10.8 5.375 11.4C5.25833 11.9833 5.2 12.6 5.2 13.25C5.2 14.1333 5.30833 14.9666 5.525 15.75C5.75833 16.5333 6.14167 17.2083 6.675 17.775C7.225 18.325 7.875 18.6 8.625 18.6C9.70833 18.6 10.7 17.85 11.6 16.35L15.075 17.65C13.6583 20.7166 11.5083 22.25 8.625 22.25Z" fill="black"/>
<path d="M24.9691 22V21.05C24.2025 21.8833 23.1441 22.3 21.7941 22.3C20.3775 22.3 19.2191 21.9416 18.3191 21.225C17.4358 20.4916 16.9941 19.45 16.9941 18.1C16.9941 16.7833 17.5108 15.775 18.5441 15.075C19.5775 14.3583 20.7858 14 22.1691 14C23.3691 14 24.3025 14.15 24.9691 14.45V13.75C24.9691 13.1666 24.7858 12.725 24.4191 12.425C24.0525 12.1083 23.5441 11.95 22.8941 11.95C21.5108 11.95 20.1441 12.4 18.7941 13.3L17.6691 10.525C19.2358 9.45829 21.0608 8.92495 23.1441 8.92495C26.7608 8.92495 28.5691 10.5916 28.5691 13.925V22H24.9691ZM22.4941 19.25C23.3941 19.25 24.2191 18.95 24.9691 18.35V17.2C24.3025 17 23.5775 16.9 22.7941 16.9C21.2941 16.9 20.5441 17.3083 20.5441 18.125C20.5441 18.875 21.1941 19.25 22.4941 19.25Z" fill="black"/>
<path d="M32.0752 22V9.22495H35.7002V10.375C35.8669 10.0416 36.1669 9.71662 36.6002 9.39995C37.0335 9.08329 37.5419 8.92495 38.1252 8.92495C39.1252 8.92495 39.9669 9.28329 40.6502 9.99995L40.1752 13.3C39.4752 12.7166 38.7169 12.425 37.9002 12.425C36.4335 12.425 35.7002 13.3083 35.7002 15.075V22H32.0752Z" fill="black"/>
<path d="M42.8418 4.49995H49.2918C50.7585 4.49995 52.0585 4.74995 53.1918 5.24995C54.3251 5.73329 55.2168 6.39995 55.8668 7.24995C56.5335 8.08329 57.0251 9.00829 57.3418 10.025C57.6751 11.0416 57.8418 12.1166 57.8418 13.25C57.8418 14.0833 57.7501 14.9 57.5668 15.7C57.3835 16.4833 57.0751 17.2666 56.6418 18.05C56.2085 18.8166 55.6668 19.4916 55.0168 20.075C54.3668 20.6416 53.5418 21.1083 52.5418 21.475C51.5418 21.825 50.4251 22 49.1918 22H42.8418V4.49995ZM49.5918 18.375C51.0251 18.375 52.1001 17.8666 52.8168 16.85C53.5335 15.8166 53.8918 14.6166 53.8918 13.25C53.8918 11.8833 53.5418 10.6833 52.8418 9.64995C52.1585 8.61662 51.1668 8.09995 49.8668 8.09995H46.6418V18.375H49.5918Z" fill="black"/>
<path d="M65.992 22.3C64.1087 22.3 62.6253 21.7083 61.542 20.525C60.4587 19.3416 59.917 17.7 59.917 15.6C59.917 13.55 60.4587 11.925 61.542 10.725C62.642 9.52495 64.1253 8.92495 65.992 8.92495C67.692 8.92495 69.0753 9.44162 70.142 10.475C71.2087 11.5083 71.742 13.0083 71.742 14.975C71.742 15.7916 71.7087 16.4166 71.642 16.85H63.467C63.5003 17.65 63.7503 18.25 64.217 18.65C64.6837 19.0333 65.2753 19.225 65.992 19.225C67.1587 19.225 68.117 18.775 68.867 17.875L70.967 19.975C69.6837 21.525 68.0253 22.3 65.992 22.3ZM63.492 14.125H68.267C68.0837 12.7083 67.2753 12 65.842 12C65.192 12 64.6587 12.1916 64.242 12.575C63.8253 12.9416 63.5753 13.4583 63.492 14.125Z" fill="black"/>
<path d="M81.976 22V21.05C81.2093 21.8833 80.151 22.3 78.801 22.3C77.3843 22.3 76.226 21.9416 75.326 21.225C74.4426 20.4916 74.001 19.45 74.001 18.1C74.001 16.7833 74.5176 15.775 75.551 15.075C76.5843 14.3583 77.7926 14 79.176 14C80.376 14 81.3093 14.15 81.976 14.45V13.75C81.976 13.1666 81.7926 12.725 81.426 12.425C81.0593 12.1083 80.551 11.95 79.901 11.95C78.5176 11.95 77.151 12.4 75.801 13.3L74.676 10.525C76.2426 9.45829 78.0676 8.92495 80.151 8.92495C83.7676 8.92495 85.576 10.5916 85.576 13.925V22H81.976ZM79.501 19.25C80.401 19.25 81.226 18.95 81.976 18.35V17.2C81.3093 17 80.5843 16.9 79.801 16.9C78.301 16.9 77.551 17.3083 77.551 18.125C77.551 18.875 78.201 19.25 79.501 19.25Z" fill="black"/>
<path d="M89.207 22V5.64995L92.832 3.94995V22H89.207Z" fill="black"/>
<path d="M102.149 22.3C100.266 22.3 98.7826 21.7083 97.6992 20.525C96.6159 19.3416 96.0742 17.7 96.0742 15.6C96.0742 13.55 96.6159 11.925 97.6992 10.725C98.7992 9.52495 100.283 8.92495 102.149 8.92495C103.849 8.92495 105.233 9.44162 106.299 10.475C107.366 11.5083 107.899 13.0083 107.899 14.975C107.899 15.7916 107.866 16.4166 107.799 16.85H99.6242C99.6576 17.65 99.9076 18.25 100.374 18.65C100.841 19.0333 101.433 19.225 102.149 19.225C103.316 19.225 104.274 18.775 105.024 17.875L107.124 19.975C105.841 21.525 104.183 22.3 102.149 22.3ZM99.6492 14.125H104.424C104.241 12.7083 103.433 12 101.999 12C101.349 12 100.816 12.1916 100.399 12.575C99.9826 12.9416 99.7326 13.4583 99.6492 14.125Z" fill="black"/>
<path d="M110.908 22V9.22495H114.533V10.375C114.7 10.0416 115 9.71662 115.433 9.39995C115.867 9.08329 116.375 8.92495 116.958 8.92495C117.958 8.92495 118.8 9.28329 119.483 9.99995L119.008 13.3C118.308 12.7166 117.55 12.425 116.733 12.425C115.267 12.425 114.533 13.3083 114.533 15.075V22H110.908Z" fill="black"/>
</g>
<g id="UK">
<path d="M127.706 18.1559C127.221 18.1559 126.761 18.0952 126.328 17.9739C125.903 17.8439 125.505 17.6446 125.132 17.3759C124.759 17.0986 124.46 16.7129 124.235 16.2189C124.018 15.7249 123.91 15.1486 123.91 14.4899V8.8999H125.886V14.4899C125.886 15.1399 126.029 15.5949 126.315 15.8549C126.61 16.1149 127.073 16.2449 127.706 16.2449C128.321 16.2449 128.776 16.1149 129.071 15.8549C129.374 15.5862 129.526 15.1312 129.526 14.4899V8.8999H131.502V14.4899C131.502 15.1399 131.394 15.7119 131.177 16.2059C130.96 16.6912 130.666 17.0726 130.293 17.3499C129.929 17.6272 129.53 17.8309 129.097 17.9609C128.664 18.0909 128.2 18.1559 127.706 18.1559Z" fill="#7572FF"/>
<path d="M139.31 17.9999L137.087 13.8659L135.358 16.0239V17.9999H133.382V8.8999H135.358V13.2029L138.764 8.8999H141.143L138.426 12.2019L141.624 17.9999H139.31Z" fill="#7572FF"/>
</g>
</g>
</g>
</svg>
